# xmcd CD database file
# Copyright (C) 1996 Ti Kan
#
# Track frame offsets:
# 	150
# 	23510
# 	41200
# 	58432
# 	83425
# 	109645
# 	132015
# 	142757
# 	167325
# 	187347
# 	209187
# 	231072
# 	246045
# 	254032
# 	270972
# 	293155
#
# Disc length: 3964 seconds
#
# Revision: 1
# Processed by: cddbd v1.4b41PL1 Copyright (c) Steve Scherf et al.
# Submitted via: DiscPlay 3.4
#
DISCID=e30f7a10
DTITLE=Charles and Eddie - Chocolate Mile
DYEAR=1900
DGENRE=
TTITLE0=Keep On Smilin'
TTITLE1=Jealousy
TTITLE2=24-7-365
TTITLE3=Wounded Bird
TTITLE4=Peace Of Mind
TTITLE5=Sunshine and Happiness
TTITLE6=Smile My Way
TTITLE7=She's So Shy
TTITLE8=I Can't Find The Words
TTITLE9=Little Piece Of Heaven
TTITLE10=Dear God
TTITLE11=To Someone else
TTITLE12=Zarah
TTITLE13=Your Love
TTITLE14=Best Place In The World
TTITLE15=The Goodbye Song
EXTD=
EXTT0=
EXTT1=
EXTT2=
EXTT3=
EXTT4=
EXTT5=
EXTT6=
EXTT7=
EXTT8=
EXTT9=
EXTT10=
EXTT11=
EXTT12=
EXTT13=
EXTT14=
EXTT15=
PLAYORDER=
